<svg width="279" height="30" viewBox="0 0 279 30" fill="none" xmlns="http://www.w3.org/2000/svg">
<circle cx="95" cy="15" r="15" fill="#38B131"/>
<circle cx="80" cy="15" r="15" fill="#E4B279"/>
<path d="M129 10.228V11.81H124.926V14.316H128.048V15.87H124.926V20H122.966V10.228H129ZM132.35 9.64V20H130.39V9.64H132.35ZM137.73 20.126C136.984 20.126 136.312 19.9627 135.714 19.636C135.117 19.3 134.646 18.8287 134.3 18.222C133.964 17.6153 133.796 16.9153 133.796 16.122C133.796 15.3287 133.969 14.6287 134.314 14.022C134.669 13.4153 135.15 12.9487 135.756 12.622C136.363 12.286 137.04 12.118 137.786 12.118C138.533 12.118 139.21 12.286 139.816 12.622C140.423 12.9487 140.899 13.4153 141.244 14.022C141.599 14.6287 141.776 15.3287 141.776 16.122C141.776 16.9153 141.594 17.6153 141.23 18.222C140.876 18.8287 140.39 19.3 139.774 19.636C139.168 19.9627 138.486 20.126 137.73 20.126ZM137.73 18.418C138.085 18.418 138.416 18.334 138.724 18.166C139.042 17.9887 139.294 17.7273 139.48 17.382C139.667 17.0367 139.76 16.6167 139.76 16.122C139.76 15.3847 139.564 14.82 139.172 14.428C138.79 14.0267 138.318 13.826 137.758 13.826C137.198 13.826 136.727 14.0267 136.344 14.428C135.971 14.82 135.784 15.3847 135.784 16.122C135.784 16.8593 135.966 17.4287 136.33 17.83C136.704 18.222 137.17 18.418 137.73 18.418ZM153.966 12.244L151.698 20H149.584L148.17 14.582L146.756 20H144.628L142.346 12.244H144.334L145.706 18.152L147.19 12.244H149.262L150.718 18.138L152.09 12.244H153.966ZM162.237 15.954C162.237 16.234 162.218 16.486 162.181 16.71H156.511C156.557 17.27 156.753 17.7087 157.099 18.026C157.444 18.3433 157.869 18.502 158.373 18.502C159.101 18.502 159.619 18.1893 159.927 17.564H162.041C161.817 18.3107 161.387 18.9267 160.753 19.412C160.118 19.888 159.339 20.126 158.415 20.126C157.668 20.126 156.996 19.9627 156.399 19.636C155.811 19.3 155.349 18.8287 155.013 18.222C154.686 17.6153 154.523 16.9153 154.523 16.122C154.523 15.3193 154.686 14.6147 155.013 14.008C155.339 13.4013 155.797 12.9347 156.385 12.608C156.973 12.2813 157.649 12.118 158.415 12.118C159.152 12.118 159.81 12.2767 160.389 12.594C160.977 12.9113 161.429 13.364 161.747 13.952C162.073 14.5307 162.237 15.198 162.237 15.954ZM160.207 15.394C160.197 14.89 160.015 14.4887 159.661 14.19C159.306 13.882 158.872 13.728 158.359 13.728C157.873 13.728 157.463 13.8773 157.127 14.176C156.8 14.4653 156.599 14.8713 156.525 15.394H160.207ZM165.627 13.448C165.879 13.0373 166.206 12.7153 166.607 12.482C167.018 12.2487 167.485 12.132 168.007 12.132V14.19H167.489C166.873 14.19 166.407 14.3347 166.089 14.624C165.781 14.9133 165.627 15.4173 165.627 16.136V20H163.667V12.244H165.627V13.448ZM176.453 13.252C176.453 13.7747 176.327 14.2647 176.075 14.722C175.833 15.1793 175.445 15.548 174.913 15.828C174.391 16.108 173.728 16.248 172.925 16.248H171.287V20H169.327V10.228H172.925C173.681 10.228 174.325 10.3587 174.857 10.62C175.389 10.8813 175.786 11.2407 176.047 11.698C176.318 12.1553 176.453 12.6733 176.453 13.252ZM172.841 14.666C173.383 14.666 173.784 14.5447 174.045 14.302C174.307 14.05 174.437 13.7 174.437 13.252C174.437 12.3 173.905 11.824 172.841 11.824H171.287V14.666H172.841ZM181.289 20.126C180.542 20.126 179.87 19.9627 179.273 19.636C178.676 19.3 178.204 18.8287 177.859 18.222C177.523 17.6153 177.355 16.9153 177.355 16.122C177.355 15.3287 177.528 14.6287 177.873 14.022C178.228 13.4153 178.708 12.9487 179.315 12.622C179.922 12.286 180.598 12.118 181.345 12.118C182.092 12.118 182.768 12.286 183.375 12.622C183.982 12.9487 184.458 13.4153 184.803 14.022C185.158 14.6287 185.335 15.3287 185.335 16.122C185.335 16.9153 185.153 17.6153 184.789 18.222C184.434 18.8287 183.949 19.3 183.333 19.636C182.726 19.9627 182.045 20.126 181.289 20.126ZM181.289 18.418C181.644 18.418 181.975 18.334 182.283 18.166C182.6 17.9887 182.852 17.7273 183.039 17.382C183.226 17.0367 183.319 16.6167 183.319 16.122C183.319 15.3847 183.123 14.82 182.731 14.428C182.348 14.0267 181.877 13.826 181.317 13.826C180.757 13.826 180.286 14.0267 179.903 14.428C179.53 14.82 179.343 15.3847 179.343 16.122C179.343 16.8593 179.525 17.4287 179.889 17.83C180.262 18.222 180.729 18.418 181.289 18.418ZM197.525 12.244L195.257 20H193.143L191.729 14.582L190.315 20H188.187L185.905 12.244H187.893L189.265 18.152L190.749 12.244H192.821L194.277 18.138L195.649 12.244H197.525ZM205.795 15.954C205.795 16.234 205.776 16.486 205.739 16.71H200.069C200.116 17.27 200.312 17.7087 200.657 18.026C201.002 18.3433 201.427 18.502 201.931 18.502C202.659 18.502 203.177 18.1893 203.485 17.564H205.599C205.375 18.3107 204.946 18.9267 204.311 19.412C203.676 19.888 202.897 20.126 201.973 20.126C201.226 20.126 200.554 19.9627 199.957 19.636C199.369 19.3 198.907 18.8287 198.571 18.222C198.244 17.6153 198.081 16.9153 198.081 16.122C198.081 15.3193 198.244 14.6147 198.571 14.008C198.898 13.4013 199.355 12.9347 199.943 12.608C200.531 12.2813 201.208 12.118 201.973 12.118C202.71 12.118 203.368 12.2767 203.947 12.594C204.535 12.9113 204.988 13.364 205.305 13.952C205.632 14.5307 205.795 15.198 205.795 15.954ZM203.765 15.394C203.756 14.89 203.574 14.4887 203.219 14.19C202.864 13.882 202.43 13.728 201.917 13.728C201.432 13.728 201.021 13.8773 200.685 14.176C200.358 14.4653 200.158 14.8713 200.083 15.394H203.765ZM209.186 13.448C209.438 13.0373 209.764 12.7153 210.166 12.482C210.576 12.2487 211.043 12.132 211.566 12.132V14.19H211.048C210.432 14.19 209.965 14.3347 209.648 14.624C209.34 14.9133 209.186 15.4173 209.186 16.136V20H207.226V12.244H209.186V13.448Z" fill="black"/>
</svg>
